<svg width="252" height="42" viewBox="0 0 252 42" fill="none" xmlns="http://www.w3.org/2000/svg">
<path d="M145.467 17.7802C144.943 17.7802 144.469 17.6677 144.043 17.4427C143.623 17.2129 143.29 16.8974 143.046 16.4964C142.806 16.0905 142.686 15.6332 142.686 15.1246C142.686 14.616 142.806 14.1612 143.046 13.7602C143.29 13.3543 143.623 13.0388 144.043 12.8138C144.469 12.584 144.946 12.4691 145.474 12.4691C145.919 12.4691 146.32 12.5473 146.677 12.7038C147.039 12.8603 147.342 13.0853 147.587 13.3787L146.824 14.0829C146.476 13.6819 146.046 13.4814 145.533 13.4814C145.215 13.4814 144.931 13.5523 144.682 13.6941C144.432 13.8311 144.237 14.0243 144.095 14.2737C143.958 14.5231 143.889 14.8067 143.889 15.1246C143.889 15.4425 143.958 15.7261 144.095 15.9756C144.237 16.225 144.432 16.4206 144.682 16.5624C144.931 16.6994 145.215 16.7678 145.533 16.7678C146.046 16.7678 146.476 16.5649 146.824 16.159L147.587 16.8632C147.342 17.1615 147.039 17.3889 146.677 17.5454C146.315 17.7019 145.912 17.7802 145.467 17.7802Z" fill="#35302F"/>
<path d="M152.997 16.7385V17.6921H149.021V12.5571H152.902V13.5107H150.202V14.6258H152.587V15.5501H150.202V16.7385H152.997Z" fill="#35302F"/>
<path d="M156.84 12.5571C157.295 12.5571 157.689 12.6329 158.021 12.7845C158.359 12.9361 158.618 13.1513 158.799 13.4301C158.98 13.7088 159.07 14.0389 159.07 14.4204C159.07 14.797 158.98 15.1271 158.799 15.4107C158.618 15.6895 158.359 15.9047 158.021 16.0563C157.689 16.203 157.295 16.2763 156.84 16.2763H155.806V17.6921H154.618V12.5571H156.84ZM156.774 15.308C157.131 15.308 157.403 15.2322 157.588 15.0806C157.774 14.9241 157.867 14.704 157.867 14.4204C157.867 14.1318 157.774 13.9118 157.588 13.7602C157.403 13.6037 157.131 13.5254 156.774 13.5254H155.806V15.308H156.774Z" fill="#35302F"/>
<path d="M164.072 15.0146C164.385 15.1075 164.625 15.2591 164.791 15.4694C164.958 15.6797 165.041 15.9389 165.041 16.247C165.041 16.7018 164.867 17.0564 164.52 17.3107C164.177 17.565 163.686 17.6921 163.045 17.6921H160.514V12.5571H162.906C163.503 12.5571 163.967 12.672 164.3 12.9019C164.632 13.1317 164.799 13.4594 164.799 13.8849C164.799 14.1392 164.735 14.3641 164.608 14.5598C164.481 14.7505 164.302 14.9021 164.072 15.0146ZM161.696 14.6845H162.803C163.062 14.6845 163.258 14.6331 163.39 14.5304C163.522 14.4228 163.588 14.2663 163.588 14.0609C163.588 13.8604 163.52 13.7064 163.383 13.5988C163.251 13.4912 163.058 13.4374 162.803 13.4374H161.696V14.6845ZM163.001 16.8118C163.559 16.8118 163.838 16.5918 163.838 16.1516C163.838 15.7261 163.559 15.5134 163.001 15.5134H161.696V16.8118H163.001Z" fill="#35302F"/>
<path d="M166.641 12.5571H167.822V15.9022L170.272 12.5571H171.387V17.6921H170.213V14.3544L167.763 17.6921H166.641V12.5571Z" fill="#35302F"/>
<path d="M175.754 17.7802C175.231 17.7802 174.756 17.6677 174.331 17.4427C173.91 17.2129 173.578 16.8974 173.333 16.4964C173.093 16.0905 172.974 15.6332 172.974 15.1246C172.974 14.616 173.093 14.1612 173.333 13.7602C173.578 13.3543 173.91 13.0388 174.331 12.8138C174.756 12.584 175.233 12.4691 175.761 12.4691C176.206 12.4691 176.607 12.5473 176.964 12.7038C177.326 12.8603 177.629 13.0853 177.874 13.3787L177.111 14.0829C176.764 13.6819 176.333 13.4814 175.82 13.4814C175.502 13.4814 175.218 13.5523 174.969 13.6941C174.72 13.8311 174.524 14.0243 174.382 14.2737C174.245 14.5231 174.177 14.8067 174.177 15.1246C174.177 15.4425 174.245 15.7261 174.382 15.9756C174.524 16.225 174.72 16.4206 174.969 16.5624C175.218 16.6994 175.502 16.7678 175.82 16.7678C176.333 16.7678 176.764 16.5649 177.111 16.159L177.874 16.8632C177.629 17.1615 177.326 17.3889 176.964 17.5454C176.602 17.7019 176.199 17.7802 175.754 17.7802Z" fill="#35302F"/>
<path d="M184.018 12.5571V17.6921H182.83V15.5868H180.497V17.6921H179.309V12.5571H180.497V14.5818H182.83V12.5571H184.018Z" fill="#35302F"/>
<path d="M188.452 14.2443C189.078 14.2443 189.557 14.3837 189.89 14.6625C190.227 14.9412 190.396 15.3545 190.396 15.9022C190.396 16.4842 190.21 16.9292 189.838 17.2373C189.472 17.5405 188.953 17.6921 188.283 17.6921H185.965V12.5571H187.146V14.2443H188.452ZM188.217 16.8118C188.525 16.8118 188.765 16.736 188.936 16.5844C189.112 16.4328 189.2 16.2128 189.2 15.9242C189.2 15.3911 188.872 15.1246 188.217 15.1246H187.146V16.8118H188.217ZM191.049 12.5571H192.23V17.6921H191.049V12.5571Z" fill="#35302F"/>
<path d="M194.169 12.5571H195.35V15.9022L197.8 12.5571H198.915V17.6921H197.741V14.3544L195.291 17.6921H194.169V12.5571ZM196.538 12.227C195.599 12.227 195.125 11.8529 195.115 11.1046H195.929C195.939 11.4616 196.142 11.6401 196.538 11.6401C196.734 11.6401 196.883 11.5961 196.986 11.5081C197.088 11.4152 197.142 11.2807 197.147 11.1046H197.961C197.956 11.4714 197.837 11.7502 197.602 11.9409C197.367 12.1316 197.013 12.227 196.538 12.227Z" fill="#35302F"/>
<path d="M208.976 16.7238V18.7778H207.883V17.6921H203.591V12.5571H204.773V16.7238H207.061V12.5571H208.242V16.7238H208.976Z" fill="#35302F"/>
<path d="M214.396 16.7385V17.6921H210.42V12.5571H214.3V13.5107H211.601V14.6258H213.985V15.5501H211.601V16.7385H214.396Z" fill="#35302F"/>
<path d="M220.725 12.5571V17.6921H219.537V15.5868H217.204V17.6921H216.016V12.5571H217.204V14.5818H219.537V12.5571H220.725Z" fill="#35302F"/>
<path d="M226.597 13.5254H224.954V17.6921H223.78V13.5254H222.144V12.5571H226.597V13.5254Z" fill="#35302F"/>
<path d="M230.226 12.5571C230.681 12.5571 231.075 12.6329 231.407 12.7845C231.745 12.9361 232.004 13.1513 232.185 13.4301C232.366 13.7088 232.456 14.0389 232.456 14.4204C232.456 14.797 232.366 15.1271 232.185 15.4107C232.004 15.6895 231.745 15.9047 231.407 16.0563C231.075 16.203 230.681 16.2763 230.226 16.2763H229.192V17.6921H228.003V12.5571H230.226ZM230.16 15.308C230.517 15.308 230.788 15.2322 230.974 15.0806C231.16 14.9241 231.253 14.704 231.253 14.4204C231.253 14.1318 231.16 13.9118 230.974 13.7602C230.788 13.6037 230.517 13.5254 230.16 13.5254H229.192V15.308H230.16Z" fill="#35302F"/>
<path d="M148.093 28.7048V30.4654H147.411V29.3431H143.185L143.178 30.4654H142.496L142.503 28.7048H142.752C143.075 28.6853 143.303 28.431 143.435 27.9419C143.567 27.448 143.647 26.7535 143.677 25.8586L143.728 24.208H147.337V28.7048H148.093ZM144.322 25.9246C144.298 26.6484 144.239 27.2475 144.146 27.7219C144.058 28.1962 143.914 28.5239 143.713 28.7048H146.611V24.8462H144.359L144.322 25.9246Z" fill="#35302F"/>
<path d="M149.756 24.208H150.482V28.1693L153.519 24.208H154.194V29.3431H153.475V25.3891L150.431 29.3431H149.756V24.208Z" fill="#35302F"/>
<path d="M159.793 28.0593H157.064L156.499 29.3431H155.744L158.069 24.208H158.795L161.128 29.3431H160.358L159.793 28.0593ZM159.536 27.4724L158.429 24.9563L157.321 27.4724H159.536Z" fill="#35302F"/>
<path d="M166.034 24.8462H163.393L163.401 29.3431H162.675V24.208H166.042L166.034 24.8462Z" fill="#35302F"/>
<path d="M171.992 24.208V29.3431H171.258V27.0543H168.309V29.3431H167.576V24.208H168.309V26.4161H171.258V24.208H171.992Z" fill="#35302F"/>
<path d="M176.564 29.4017C176.046 29.4017 175.579 29.2893 175.163 29.0643C174.748 28.8344 174.42 28.519 174.18 28.118C173.946 27.717 173.828 27.2695 173.828 26.7755C173.828 26.2816 173.946 25.8341 174.18 25.4331C174.42 25.0321 174.748 24.7191 175.163 24.4941C175.579 24.2643 176.046 24.1493 176.564 24.1493C177.078 24.1493 177.543 24.2643 177.958 24.4941C178.374 24.7191 178.699 25.0321 178.934 25.4331C179.169 25.8292 179.286 26.2767 179.286 26.7755C179.286 27.2744 179.169 27.7243 178.934 28.1253C178.699 28.5215 178.374 28.8344 177.958 29.0643C177.543 29.2893 177.078 29.4017 176.564 29.4017ZM176.564 28.7489C176.941 28.7489 177.278 28.6633 177.577 28.4921C177.88 28.3209 178.117 28.0862 178.288 27.7879C178.464 27.4847 178.552 27.1472 178.552 26.7755C178.552 26.4039 178.464 26.0689 178.288 25.7705C178.117 25.4673 177.88 25.2301 177.577 25.059C177.278 24.8878 176.941 24.8022 176.564 24.8022C176.188 24.8022 175.845 24.8878 175.537 25.059C175.234 25.2301 174.995 25.4673 174.818 25.7705C174.647 26.0689 174.562 26.4039 174.562 26.7755C174.562 27.1472 174.647 27.4847 174.818 27.7879C174.995 28.0862 175.234 28.3209 175.537 28.4921C175.845 28.6633 176.188 28.7489 176.564 28.7489Z" fill="#35302F"/>
<path d="M183.428 29.4017C182.915 29.4017 182.45 29.2893 182.034 29.0643C181.624 28.8344 181.301 28.5215 181.066 28.1253C180.831 27.7243 180.714 27.2744 180.714 26.7755C180.714 26.2767 180.831 25.8292 181.066 25.4331C181.301 25.0321 181.626 24.7191 182.042 24.4941C182.457 24.2643 182.922 24.1493 183.435 24.1493C183.837 24.1493 184.203 24.2178 184.536 24.3547C184.868 24.4868 185.152 24.6848 185.387 24.9489L184.91 25.4111C184.524 25.0052 184.042 24.8022 183.465 24.8022C183.083 24.8022 182.739 24.8878 182.43 25.059C182.122 25.2301 181.88 25.4673 181.704 25.7705C181.533 26.0689 181.448 26.4039 181.448 26.7755C181.448 27.1472 181.533 27.4847 181.704 27.7879C181.88 28.0862 182.122 28.3209 182.43 28.4921C182.739 28.6633 183.083 28.7489 183.465 28.7489C184.037 28.7489 184.519 28.5435 184.91 28.1327L185.387 28.5948C185.152 28.8589 184.866 29.0594 184.529 29.1963C184.196 29.3333 183.829 29.4017 183.428 29.4017Z" fill="#35302F"/>
<path d="M190.529 24.8462H188.768V29.3431H188.049V24.8462H186.296V24.208H190.529V24.8462Z" fill="#35302F"/>
<path d="M192.081 24.208H192.807V28.1693L195.844 24.208H196.519V29.3431H195.8V25.3891L192.756 29.3431H192.081V24.208Z" fill="#35302F"/>
<path d="M200.57 27.0836H199.499V29.3431H198.78V24.208H199.499V26.4381H200.585L202.198 24.208H202.983L201.149 26.6948L203.071 29.3431H202.235L200.57 27.0836Z" fill="#35302F"/>
<path d="M207.75 28.0593H205.021L204.456 29.3431H203.7L206.026 24.208H206.752L209.085 29.3431H208.315L207.75 28.0593ZM207.493 27.4724L206.385 24.9563L205.278 27.4724H207.493Z" fill="#35302F"/>
<path d="M210.919 28.3821C211.056 28.3821 211.168 28.431 211.256 28.5288C211.349 28.6217 211.396 28.7391 211.396 28.8809C211.396 28.9543 211.386 29.0252 211.366 29.0936C211.352 29.1621 211.32 29.2673 211.271 29.4091L210.926 30.4288H210.464L210.735 29.3357C210.643 29.3015 210.567 29.2453 210.508 29.167C210.454 29.0839 210.427 28.9885 210.427 28.8809C210.427 28.7342 210.474 28.6144 210.567 28.5215C210.66 28.4285 210.777 28.3821 210.919 28.3821Z" fill="#35302F"/>
<path d="M217.83 24.208C218.495 24.208 219.018 24.367 219.4 24.6848C219.781 25.0027 219.972 25.4404 219.972 25.998C219.972 26.5555 219.781 26.9932 219.4 27.3111C219.018 27.6289 218.495 27.7879 217.83 27.7879H216.561V29.3431H215.827V24.208H217.83ZM217.808 27.1497C218.273 27.1497 218.627 27.0519 218.872 26.8562C219.116 26.6557 219.239 26.3696 219.239 25.998C219.239 25.6263 219.116 25.3426 218.872 25.147C218.627 24.9465 218.273 24.8462 217.808 24.8462H216.561V27.1497H217.808Z" fill="#35302F"/>
<path d="M225.379 28.7048V29.3431H221.653V24.208H225.277V24.8462H222.386V26.4234H224.961V27.047H222.386V28.7048H225.379Z" fill="#35302F"/>
<path d="M231.952 29.3431L231.945 25.6018L230.089 28.7195H229.752L227.896 25.6238V29.3431H227.192V24.208H227.793L229.935 27.8172L232.048 24.208H232.649L232.657 29.3431H231.952Z" fill="#35302F"/>
<path d="M237.226 29.4017C236.708 29.4017 236.241 29.2893 235.825 29.0643C235.409 28.8344 235.082 28.519 234.842 28.118C234.607 27.717 234.49 27.2695 234.49 26.7755C234.49 26.2816 234.607 25.8341 234.842 25.4331C235.082 25.0321 235.409 24.7191 235.825 24.4941C236.241 24.2643 236.708 24.1493 237.226 24.1493C237.74 24.1493 238.204 24.2643 238.62 24.4941C239.036 24.7191 239.361 25.0321 239.595 25.4331C239.83 25.8292 239.948 26.2767 239.948 26.7755C239.948 27.2744 239.83 27.7243 239.595 28.1253C239.361 28.5215 239.036 28.8344 238.62 29.0643C238.204 29.2893 237.74 29.4017 237.226 29.4017ZM237.226 28.7489C237.603 28.7489 237.94 28.6633 238.238 28.4921C238.542 28.3209 238.779 28.0862 238.95 27.7879C239.126 27.4847 239.214 27.1472 239.214 26.7755C239.214 26.4039 239.126 26.0689 238.95 25.7705C238.779 25.4673 238.542 25.2301 238.238 25.059C237.94 24.8878 237.603 24.8022 237.226 24.8022C236.849 24.8022 236.507 24.8878 236.199 25.059C235.896 25.2301 235.656 25.4673 235.48 25.7705C235.309 26.0689 235.223 26.4039 235.223 26.7755C235.223 27.1472 235.309 27.4847 235.48 27.7879C235.656 28.0862 235.896 28.3209 236.199 28.4921C236.507 28.6633 236.849 28.7489 237.226 28.7489Z" fill="#35302F"/>
<path d="M246.21 24.208V29.3431H245.476V27.0543H242.527V29.3431H241.794V24.208H242.527V26.4161H245.476V24.208H246.21Z" fill="#35302F"/>
<path d="M252 24.8462H250.239V29.3431H249.521V24.8462H247.767V24.208H252V24.8462Z" fill="#35302F"/>
<path d="M143.2 35.8589H143.926V39.8203L146.963 35.8589H147.638V40.994H146.919V37.04L143.875 40.994H143.2V35.8589Z" fill="#35302F"/>
<path d="M154.84 41.0527C154.322 41.0527 153.855 40.9402 153.439 40.7152C153.023 40.4854 152.696 40.1699 152.456 39.7689C152.221 39.3679 152.104 38.9204 152.104 38.4265C152.104 37.9325 152.221 37.485 152.456 37.084C152.696 36.683 153.023 36.37 153.439 36.145C153.855 35.9152 154.322 35.8003 154.84 35.8003C155.354 35.8003 155.818 35.9152 156.234 36.145C156.65 36.37 156.975 36.683 157.21 37.084C157.444 37.4802 157.562 37.9276 157.562 38.4265C157.562 38.9253 157.444 39.3752 157.21 39.7762C156.975 40.1724 156.65 40.4854 156.234 40.7152C155.818 40.9402 155.354 41.0527 154.84 41.0527ZM154.84 40.3998C155.217 40.3998 155.554 40.3142 155.853 40.143C156.156 39.9719 156.393 39.7371 156.564 39.4388C156.74 39.1356 156.828 38.7981 156.828 38.4265C156.828 38.0548 156.74 37.7198 156.564 37.4215C156.393 37.1183 156.156 36.8811 155.853 36.7099C155.554 36.5387 155.217 36.4531 154.84 36.4531C154.464 36.4531 154.121 36.5387 153.813 36.7099C153.51 36.8811 153.27 37.1183 153.094 37.4215C152.923 37.7198 152.838 38.0548 152.838 38.4265C152.838 38.7981 152.923 39.1356 153.094 39.4388C153.27 39.7371 153.51 39.9719 153.813 40.143C154.121 40.3142 154.464 40.3998 154.84 40.3998Z" fill="#35302F"/>
<path d="M159.408 35.8589H163.281V36.4825H160.134V37.9496H161.733C162.345 37.9496 162.809 38.0768 163.127 38.3311C163.445 38.5854 163.604 38.9522 163.604 39.4315C163.604 39.9352 163.43 40.3215 163.083 40.5905C162.741 40.8595 162.249 40.994 161.609 40.994H159.408V35.8589ZM161.579 40.4145C162 40.4145 162.32 40.3338 162.54 40.1724C162.76 40.011 162.87 39.7738 162.87 39.4608C162.87 38.8397 162.44 38.5292 161.579 38.5292H160.134V40.4145H161.579Z" fill="#35302F"/>
<path d="M167.73 41.0527C167.216 41.0527 166.752 40.9402 166.336 40.7152C165.925 40.4854 165.603 40.1724 165.368 39.7762C165.133 39.3752 165.016 38.9253 165.016 38.4265C165.016 37.9276 165.133 37.4802 165.368 37.084C165.603 36.683 165.928 36.37 166.343 36.145C166.759 35.9152 167.224 35.8003 167.737 35.8003C168.138 35.8003 168.505 35.8687 168.838 36.0057C169.17 36.1377 169.454 36.3358 169.689 36.5999L169.212 37.062C168.825 36.6561 168.344 36.4531 167.767 36.4531C167.385 36.4531 167.04 36.5387 166.732 36.7099C166.424 36.8811 166.182 37.1183 166.006 37.4215C165.835 37.7198 165.749 38.0548 165.749 38.4265C165.749 38.7981 165.835 39.1356 166.006 39.4388C166.182 39.7371 166.424 39.9719 166.732 40.143C167.04 40.3142 167.385 40.3998 167.767 40.3998C168.339 40.3998 168.82 40.1944 169.212 39.7836L169.689 40.2457C169.454 40.5098 169.168 40.7103 168.83 40.8473C168.498 40.9842 168.131 41.0527 167.73 41.0527Z" fill="#35302F"/>
<path d="M175.427 35.8589V40.994H174.708V36.4972H172.434L172.382 38.001C172.358 38.7101 172.299 39.2848 172.206 39.7249C172.118 40.165 171.976 40.4976 171.781 40.7226C171.585 40.9426 171.321 41.0527 170.988 41.0527C170.837 41.0527 170.683 41.0331 170.526 40.994L170.578 40.3411C170.656 40.3607 170.734 40.3704 170.812 40.3704C171.023 40.3704 171.191 40.2873 171.319 40.121C171.446 39.9499 171.541 39.6956 171.605 39.3581C171.668 39.0207 171.71 38.5756 171.729 38.023L171.81 35.8589H175.427Z" fill="#35302F"/>
<path d="M181.89 35.8589L179.608 40.0917C179.427 40.4291 179.215 40.681 178.97 40.8473C178.725 41.0135 178.459 41.0967 178.17 41.0967C177.945 41.0967 177.716 41.0453 177.481 40.9426L177.672 40.3558C177.853 40.4194 178.014 40.4511 178.156 40.4511C178.479 40.4511 178.745 40.28 178.955 39.9376L179.073 39.7542L177.004 35.8589H177.789L179.454 39.116L181.163 35.8589H181.89Z" fill="#35302F"/>
<path d="M187.56 38.7346H186.584V40.994H185.865V38.7346H184.882L183.445 40.994H182.586L184.281 38.3238L182.711 35.8589H183.496L184.868 38.089H185.865V35.8589H186.584V38.089H187.567L188.946 35.8589H189.731L188.162 38.3384L189.856 40.994H188.998L187.56 38.7346Z" fill="#35302F"/>
<path d="M191.286 35.8589H192.012V39.8203L195.049 35.8589H195.724V40.994H195.005V37.04L191.96 40.994H191.286V35.8589Z" fill="#35302F"/>
<path d="M201.183 38.3311C201.53 38.4142 201.792 38.5634 201.968 38.7786C202.149 38.9889 202.24 39.2603 202.24 39.5929C202.24 40.0379 202.076 40.3827 201.748 40.6272C201.425 40.8717 200.953 40.994 200.332 40.994H197.985V35.8589H200.193C200.755 35.8589 201.193 35.9739 201.506 36.2037C201.824 36.4287 201.983 36.7539 201.983 37.1794C201.983 37.4581 201.912 37.6953 201.77 37.891C201.633 38.0866 201.438 38.2333 201.183 38.3311ZM198.711 38.1184H200.142C200.499 38.1184 200.77 38.0475 200.956 37.9056C201.147 37.7638 201.242 37.556 201.242 37.2821C201.242 37.0082 201.147 36.8004 200.956 36.6585C200.765 36.5118 200.494 36.4385 200.142 36.4385H198.711V38.1184ZM200.318 40.4145C201.105 40.4145 201.499 40.121 201.499 39.5342C201.499 39.2407 201.398 39.0256 201.198 38.8886C201.002 38.7468 200.709 38.6759 200.318 38.6759H198.711V40.4145H200.318Z" fill="#35302F"/>
<path d="M207.463 39.7102H204.734L204.169 40.994H203.414L205.739 35.8589H206.466L208.798 40.994H208.028L207.463 39.7102ZM207.206 39.1234L206.099 36.6072L204.991 39.1234H207.206Z" fill="#35302F"/>
<path d="M214.761 35.8589V40.994H214.027V38.7052H211.078V40.994H210.345V35.8589H211.078V38.067H214.027V35.8589H214.761Z" fill="#35302F"/>
<path d="M217.023 35.8589H217.749V39.8203L220.786 35.8589H221.461V40.994H220.742V37.04L217.697 40.994H217.023V35.8589Z" fill="#35302F"/>
<path d="M227.449 40.3558V40.994H223.722V35.8589H227.346V36.4972H224.456V38.0744H227.03V38.6979H224.456V40.3558H227.449Z" fill="#35302F"/>
<path d="M28.2388 12.5052V41.1533H20.2992L9.41292 28.1389V41.1533H0V12.5052H7.9396L18.8259 25.5196V12.5052H28.2388Z" fill="#35302F"/>
<path d="M68.1044 41.8081C65.0759 41.8081 62.3475 41.1806 59.9192 39.9255C57.4909 38.6432 55.5811 36.8697 54.1896 34.6052C52.8254 32.3133 52.1433 29.7214 52.1433 26.8293C52.1433 23.9372 52.8254 21.3589 54.1896 19.0943C55.5811 16.8025 57.4909 15.029 59.9192 13.774C62.3475 12.4916 65.0759 11.8505 68.1044 11.8505C70.8873 11.8505 73.3701 12.3416 75.5528 13.3238C77.7356 14.306 79.5363 15.7248 80.9551 17.5801L74.8571 23.0232C73.0837 20.7859 70.9964 19.6673 68.5955 19.6673C66.5765 19.6673 64.9531 20.3221 63.7253 21.6317C62.4975 22.9141 61.8836 24.6466 61.8836 26.8293C61.8836 29.012 62.4975 30.7582 63.7253 32.0678C64.9531 33.3501 66.5765 33.9913 68.5955 33.9913C70.9964 33.9913 73.0837 32.8727 74.8571 30.6354L80.9551 36.0785C79.5363 37.9338 77.7356 39.3526 75.5528 40.3348C73.3701 41.317 70.8873 41.8081 68.1044 41.8081Z" fill="#35302F"/>
<path d="M110.468 33.8685V41.1533H86.6492V12.5052H109.936V19.79H96.1439V23.146H106.532V30.1033H96.1439V33.8685H110.468Z" fill="#35302F"/>
<path fill-rule="evenodd" clip-rule="evenodd" d="M43.6216 41.1532H38.6592C38.5602 40.9812 38.288 39.971 37.9926 38.8751C37.6442 37.5824 37.2637 36.1703 37.0974 35.8737L36.1544 35.8785L35.1126 34.8496L42.3209 32.2712L36.6375 32.6869C36.6321 32.6433 36.6268 32.5773 36.6204 32.4991C36.5959 32.1982 36.5568 31.717 36.4448 31.6359L35.1063 30.5857L42.6297 27.9396C42.6373 27.9144 42.6532 27.9042 42.6691 27.894C42.6775 27.8886 42.6859 27.8833 42.693 27.8757L38.1393 28.2265C37.8812 28.2326 37.6712 28.2696 37.4618 28.3066C37.2082 28.3514 36.9555 28.396 36.6192 28.3851L36.6285 27.3929L35.0415 26.2925L42.6379 23.6162L36.6079 24.0179L36.5672 23.0272L35.0847 21.8588L42.0957 19.5686L36.4488 19.6118L36.4489 15.2646L45.1845 12.3527L45.1897 18.4422C45.3422 18.5755 45.623 18.7817 45.9285 19.0059C46.4471 19.3866 47.0369 19.8195 47.1899 20.0368C46.4258 20.6684 45.7214 21.2559 45.1746 21.7541C45.1767 22.0842 45.1639 22.3029 45.1554 22.4488C45.1449 22.6273 45.1408 22.6969 45.1784 22.7284C45.5963 23.0789 45.9851 23.3794 46.3906 23.6927C46.6514 23.8942 46.9191 24.1011 47.2059 24.33C46.404 25.027 45.903 25.4425 45.1802 25.9637L45.1902 27.0285C45.3021 27.1949 45.8621 27.6153 46.3777 28.0023C46.7032 28.2467 47.0109 28.4778 47.177 28.6231C46.892 28.8505 46.6616 29.031 46.4652 29.1849C45.9054 29.6235 45.6219 29.8457 45.1405 30.3181C45.1405 30.3181 45.1151 31.0142 45.1104 31.4642C45.6209 31.7819 45.9798 32.0374 46.3559 32.3051C46.6164 32.4906 46.8853 32.682 47.2185 32.9041C46.6184 33.4617 46.1219 33.8443 45.5756 34.2653C45.4483 34.3635 45.3182 34.4637 45.1835 34.5688L43.6216 41.1532ZM45.1822 9.54863L36.4489 12.4597L36.4489 8.01506H31.9321C31.9322 3.54075 35.3981 0 39.6255 0V3.46597H42.2653V1.16256e-05C46.8791 1.16256e-05 49.6952 3.50035 49.6952 8.01506H45.1809L45.1822 9.54863Z" fill="#35302F"/>
</svg>
